<mxfile host="app.diagrams.net" modified="2024-05-15T07:11:55.943Z" agent="Mozilla/5.0 (Windows NT 10.0; Win64; x64) AppleWebKit/537.36 (KHTML, like Gecko) Chrome/124.0.0.0 Safari/537.36" version="24.4.0" etag="-xnFiTawwCh26LsS1MoT" type="github">
  <diagram name="Page-1" id="fZzsu9hmyL7Nlfl3KdEv">
    <mxGraphModel>
      <root>
        <mxCell id="0" />
        <mxCell id="1" parent="0" />
      </root>
    </mxGraphModel>
  </diagram>
</mxfile>
